<svg version="1.1" id="Layer_1" xmlns="http://www.w3.org/2000/svg" xmlns:xlink="http://www.w3.org/1999/xlink" x="0px" y="0px"
	 width="100%" viewBox="0 0 364 364" enable-background="new 0 0 364 364" xml:space="preserve">
<path fill="#010101" opacity="1.000000" stroke="none" 
	d="
M171.000000,365.000000 
	C114.019402,365.000000 57.538803,365.000000 1.029102,365.000000 
	C1.029102,243.727737 1.029102,122.455467 1.029102,1.091597 
	C122.230537,1.091597 243.461166,1.091597 364.845886,1.091597 
	C364.845886,122.333183 364.845886,243.666565 364.845886,365.000000 
	C300.455566,365.000000 235.977783,365.000000 171.000000,365.000000 
M252.761963,195.817139 
	C254.131775,195.826752 255.501587,195.836380 257.824799,195.846619 
	C283.388092,195.846619 308.951385,195.846619 334.849884,195.846619 
	C334.849884,189.592987 335.098938,183.948624 334.807098,178.332382 
	C333.488708,152.960861 322.139618,133.293350 298.929901,122.701859 
	C274.731598,111.659218 250.920959,114.099403 229.374176,130.603210 
	C216.060333,140.800995 207.918121,154.426514 203.111908,170.502533 
	C196.764847,170.502533 190.417801,170.502533 184.959412,170.502533 
	C184.959412,179.465958 184.959412,187.435532 184.959412,195.800369 
	C191.044342,195.800369 197.492126,195.800369 204.302505,196.508484 
	C211.881027,224.997604 229.941467,243.354736 258.634247,249.684036 
	C281.676819,254.766968 302.309021,248.557114 319.800995,231.915466 
	C313.289215,223.540314 307.127380,215.615219 300.918854,207.630112 
	C280.082153,228.136658 250.589828,222.192535 241.521027,195.894302 
	C241.689011,195.788940 241.856979,195.683594 242.650681,195.749039 
	C243.078949,195.711411 243.507217,195.673782 244.766754,195.859451 
	C246.457184,195.786636 248.147598,195.713821 250.534973,195.807480 
	C251.004105,195.740173 251.473251,195.672867 252.761963,195.817139 
M191.729965,142.245911 
	C193.448410,140.002518 195.166870,137.759125 196.878494,135.524673 
	C170.689438,108.250893 125.304543,110.436462 98.167809,140.223907 
	C71.503754,169.492523 75.961723,211.550934 108.636337,237.147903 
	C140.018997,261.732788 182.122787,250.636688 197.120026,231.385315 
	C191.021683,223.519379 184.909729,215.635895 178.783997,207.734665 
	C161.187500,223.462250 140.983307,224.080688 126.315216,209.563446 
	C112.863434,196.249985 112.264725,174.673096 125.003105,160.213013 
	C131.371628,152.983734 139.549072,149.136230 149.045227,148.467224 
	C160.250259,147.677826 169.831375,151.646149 177.928665,160.015076 
	C182.531342,154.072601 186.899811,148.432495 191.729965,142.245911 
M63.689503,192.500153 
	C63.689503,167.923248 63.689503,143.346344 63.689503,118.559906 
	C51.515652,118.559906 39.951462,118.559906 28.321426,118.559906 
	C28.321426,161.821716 28.321426,204.824310 28.321426,247.690369 
	C40.217026,247.690369 51.775066,247.690369 63.689487,247.690369 
	C63.689487,229.400421 63.689487,211.450302 63.689503,192.500153 
M146.036713,200.720520 
	C156.305130,202.888947 163.702042,199.927368 167.720123,192.038925 
	C171.167084,185.271729 169.611053,176.060654 164.005569,170.926331 
	C158.438629,165.827332 151.907944,164.751541 145.032043,167.496292 
	C138.280090,170.191589 134.509506,175.498642 134.165451,182.813461 
	C133.771927,191.180496 137.585266,197.106033 146.036713,200.720520 
z"/>
<path fill="#FBFCFC" opacity="1.000000" stroke="none" 
	d="
M240.986771,196.160522 
	C250.589828,222.192535 280.082153,228.136658 300.918854,207.630112 
	C307.127380,215.615219 313.289215,223.540314 319.800995,231.915466 
	C302.309021,248.557114 281.676819,254.766968 258.634247,249.684036 
	C229.941467,243.354736 211.881027,224.997604 204.178116,195.746185 
	C204.045715,186.877823 204.037704,178.771744 204.029694,170.665680 
	C207.918121,154.426514 216.060333,140.800995 229.374176,130.603210 
	C250.920959,114.099403 274.731598,111.659218 298.929901,122.701859 
	C322.139618,133.293350 333.488708,152.960861 334.807098,178.332382 
	C335.098938,183.948624 334.849884,189.592987 334.849884,195.846619 
	C308.951385,195.846619 283.388092,195.846619 257.075195,195.670837 
	C255.638214,194.681656 254.950836,193.868256 254.404816,192.606232 
	C254.463562,187.083603 254.380966,182.009613 254.475708,176.526749 
	C254.759933,174.309692 254.866791,172.501526 255.441696,170.643692 
	C270.223694,170.594025 284.537628,170.594025 299.079407,170.594025 
	C295.424500,156.278900 284.967590,147.515228 271.976288,147.127396 
	C256.908539,146.677567 245.378281,155.109772 240.591400,170.054565 
	C240.184952,171.124420 240.027939,172.036896 239.674942,173.383301 
	C239.653229,180.256104 239.827515,186.694946 239.965073,193.462448 
	C240.281158,194.580917 240.633957,195.370712 240.986771,196.160522 
z"/>
<path fill="#FCFCFC" opacity="1.000000" stroke="none" 
	d="
M191.499115,142.519165 
	C186.899811,148.432495 182.531342,154.072601 177.928665,160.015076 
	C169.831375,151.646149 160.250259,147.677826 149.045227,148.467224 
	C139.549072,149.136230 131.371628,152.983734 125.003105,160.213013 
	C112.264725,174.673096 112.863434,196.249985 126.315216,209.563446 
	C140.983307,224.080688 161.187500,223.462250 178.783997,207.734665 
	C184.909729,215.635895 191.021683,223.519379 197.120026,231.385315 
	C182.122787,250.636688 140.018997,261.732788 108.636337,237.147903 
	C75.961723,211.550934 71.503754,169.492523 98.167809,140.223907 
	C125.304543,110.436462 170.689438,108.250893 196.878494,135.524673 
	C195.166870,137.759125 193.448410,140.002518 191.499115,142.519165 
z"/>
<path fill="#FBFBFB" opacity="1.000000" stroke="none" 
	d="
M63.689495,193.000153 
	C63.689487,211.450302 63.689487,229.400421 63.689487,247.690369 
	C51.775066,247.690369 40.217026,247.690369 28.321426,247.690369 
	C28.321426,204.824310 28.321426,161.821716 28.321426,118.559906 
	C39.951462,118.559906 51.515652,118.559906 63.689503,118.559906 
	C63.689503,143.346344 63.689503,167.923248 63.689495,193.000153 
z"/>
<path fill="#15B3B7" opacity="1.000000" stroke="none" 
	d="
M145.668762,200.592209 
	C137.585266,197.106033 133.771927,191.180496 134.165451,182.813461 
	C134.509506,175.498642 138.280090,170.191589 145.032043,167.496292 
	C151.907944,164.751541 158.438629,165.827332 164.005569,170.926331 
	C169.611053,176.060654 171.167084,185.271729 167.720123,192.038925 
	C163.702042,199.927368 156.305130,202.888947 145.668762,200.592209 
z"/>
<path fill="#1AB1B5" opacity="1.000000" stroke="none" 
	d="
M203.570801,170.584106 
	C204.037704,178.771744 204.045715,186.877823 203.996811,195.392120 
	C197.492126,195.800369 191.044342,195.800369 184.959412,195.800369 
	C184.959412,187.435532 184.959412,179.465958 184.959412,170.502533 
	C190.417801,170.502533 196.764847,170.502533 203.570801,170.584106 
z"/>
<path fill="#16B4B9" opacity="1.000000" stroke="none" 
	d="
M240.001801,193.133789 
	C239.827515,186.694946 239.653229,180.256104 240.012421,173.275955 
	C248.112717,170.519012 251.582367,171.578903 254.298370,176.935638 
	C254.380966,182.009613 254.463562,187.083603 254.153107,192.651703 
	C253.154160,193.965759 252.548279,194.785660 251.942383,195.605560 
	C251.473251,195.672867 251.004105,195.740173 249.935272,195.536453 
	C247.535538,195.389008 245.735519,195.512573 243.935486,195.636154 
	C243.507217,195.673782 243.078949,195.711411 242.288269,195.384491 
	C241.284515,194.391235 240.643158,193.762512 240.001801,193.133789 
z"/>
<path fill="#5D9B9D" opacity="1.000000" stroke="none" 
	d="
M252.352173,195.711365 
	C252.548279,194.785660 253.154160,193.965759 254.011749,193.100357 
	C254.950836,193.868256 255.638214,194.681656 256.598511,195.670532 
	C255.501587,195.836380 254.131775,195.826752 252.352173,195.711365 
z"/>
<path fill="#5D9B9D" opacity="1.000000" stroke="none" 
	d="
M244.351120,195.747803 
	C245.735519,195.512573 247.535538,195.389008 249.586792,195.453217 
	C248.147598,195.713821 246.457184,195.786636 244.351120,195.747803 
z"/>
<path fill="#5D9B9D" opacity="1.000000" stroke="none" 
	d="
M239.965073,193.462448 
	C240.643158,193.762512 241.284515,194.391235 241.975403,195.299103 
	C241.856979,195.683594 241.689011,195.788940 241.253906,196.027405 
	C240.633957,195.370712 240.281158,194.580917 239.965073,193.462448 
z"/>
<path fill="#050505" opacity="1.000000" stroke="none" 
	d="
M240.840820,169.897156 
	C245.378281,155.109772 256.908539,146.677567 271.976288,147.127396 
	C284.967590,147.515228 295.424500,156.278900 299.079407,170.594025 
	C284.537628,170.594025 270.223694,170.594025 255.093994,170.438110 
	C249.799118,170.153839 245.319977,170.025497 240.840820,169.897156 
z"/>
<path fill="#5D9B9D" opacity="1.000000" stroke="none" 
	d="
M240.591400,170.054565 
	C245.319977,170.025497 249.799118,170.153839 254.625977,170.487762 
	C254.866791,172.501526 254.759933,174.309692 254.475708,176.526749 
	C251.582367,171.578903 248.112717,170.519012 240.208420,172.842010 
	C240.027939,172.036896 240.184952,171.124420 240.591400,170.054565 
z"/>
</svg>